<svg xmlns="http://www.w3.org/2000/svg" width="128" height="128" fill="none" viewBox="0 0 128 128"><path fill="#252525" d="M0 0h128v128H0z"/><circle cx="64.5" cy="43.5" r="25.5" fill="#7c3aed"/><path stroke="#fff" stroke-linejoin="round" stroke-width="2" d="m64.941 33 8.941 4.47v11.326l-8.94 4.47L56 48.797V37.471z"/><path stroke="#fff" stroke-linecap="round" stroke-width="2" d="m56 37.47 8.941 4.471m8.942-4.471-8.942 4.471m0 0v11.326"/><circle cx="87.5" cy="85.5" r="25.5" fill="#7c3aed"/><path stroke="#fff" stroke-linecap="round" stroke-width="2" d="M88 75v16"/><path stroke="#fff" stroke-linecap="round" stroke-linejoin="round" stroke-width="2" d="M82.667 85.667 88 91l5.334-5.333"/><path stroke="#fff" stroke-linecap="round" stroke-width="2" d="M80 95.667h16"/><circle cx="40.5" cy="85.5" r="25.5" fill="#7c3aed"/><path stroke="#fff" stroke-linecap="round" stroke-linejoin="round" stroke-width="2" d="M34.667 79.667 30 85l4.667 5.333m11.332-10.666L50.666 85l-4.667 5.333"/><path stroke="#fff" stroke-linecap="round" stroke-width="2" d="m42.333 77-4 16"/><circle cx="64" cy="71" r="5" fill="#abed3a"/><circle cx="64" cy="71" r="6.5" stroke="#abed3a" opacity=".8"/><circle cx="64" cy="71" r="8.5" stroke="#abed3a" opacity=".5"/><circle cx="64" cy="71" r="10.5" stroke="#abed3a" opacity=".2"/></svg>